<?xml version="1.0" encoding="UTF-8"?>
<svg version="1.1" xmlns="http://www.w3.org/2000/svg" width="512" height="512">
<path d="M0 0 C38.08223387 -0.84276036 74.20651264 13.58320901 101.78369141 39.60229492 C112.57860629 50.11372693 120.97899772 61.9801784 128.26171875 75.125 C128.67164063 75.86363281 129.0815625 76.60226563 129.50390625 77.36328125 C130.26171875 79.125 130.26171875 79.125 130.26171875 82.125 C129.22764893 82.10928955 128.1935791 82.0935791 127.12817383 82.07739258 C123.27978348 82.02295946 119.43142696 81.98860151 115.58276367 81.96020508 C113.91929394 81.94514886 112.2558637 81.92469937 110.5925293 81.89868164 C108.19700353 81.86215793 105.80200408 81.84524218 103.40625 81.83203125 C102.66647415 81.81654739 101.9266983 81.80106354 101.164505 81.78511047 C96.66607282 81.78365504 93.84830273 82.37066202 90.26171875 85.125 C88.46939885 87.4876035 88.24497078 88.71870654 88.3671875 91.68359375 C89.63123618 96.54659325 92.19672916 100.21256837 94.94921875 104.375 C96.03934612 106.06882792 97.12919264 107.76283662 98.21875 109.45703125 C99.95519205 112.12868587 101.70280887 114.79172769 103.4609375 117.44921875 C104.29044922 118.74279297 104.29044922 118.74279297 105.13671875 120.0625 C105.60851562 120.77277344 106.0803125 121.48304688 106.56640625 122.21484375 C107.26171875 124.125 107.26171875 124.125 106.57421875 126.2734375 C105.26171875 128.125 105.26171875 128.125 102.38671875 129.8125 C99.09594539 132.24767229 98.83863615 132.7785194 97.60546875 136.3984375 C95.24957982 141.96005402 91.7595022 144.14099283 86.63671875 147.0625 C85.79206055 147.56773193 84.94740234 148.07296387 84.07714844 148.59350586 C81.4866494 150.13086035 78.87717701 151.63059541 76.26171875 153.125 C74.77984865 153.99201787 73.29807271 154.85919669 71.81640625 155.7265625 C35.9487508 176.42492552 -2.95996254 190.15951341 -43.73828125 197.125 C-44.51091309 197.25777344 -45.28354492 197.39054688 -46.07958984 197.52734375 C-71.85707172 201.7166994 -102.2706451 201.72229616 -126.39453125 190.9375 C-129.54134973 188.50396038 -130.33770748 185.82172115 -131.36328125 182.125 C-131.67011841 181.06321533 -131.67011841 181.06321533 -131.9831543 179.97998047 C-142.33699404 142.51322362 -137.03845987 102.82395021 -118.0234375 69.08203125 C-116.35054695 66.35423561 -114.58865604 63.73548725 -112.73828125 61.125 C-112.03445312 60.1246875 -111.330625 59.124375 -110.60546875 58.09375 C-88.24086097 27.68378826 -55.60622558 7.7597699 -18.3125 1.61328125 C-12.20258083 0.77859284 -6.15714138 0.28106779 0 0 Z " fill="#000000" transform="translate(240.73828125,114.875)"/>
<path d="M0 0 C-3.46151833 19.7306545 -14.19430309 37.87788235 -27 53 C-27.45213867 53.5372168 -27.90427734 54.07443359 -28.37011719 54.62792969 C-51.82244305 82.1276994 -86.16793341 99.47586329 -122.1953125 102.47265625 C-159.9739673 105.05297293 -196.55976011 94.50402373 -225.59765625 69.7890625 C-231.61748429 64.48565912 -237.66888435 59.00034081 -243 53 C-243 52.34 -243 51.68 -243 51 C-238.9317962 51.42823198 -234.88211641 51.86459367 -230.83813477 52.48535156 C-220.70073203 54.01175979 -210.74329257 54.4000231 -200.5 54.375 C-199.65505981 54.37445618 -198.81011963 54.37391235 -197.9395752 54.37335205 C-142.70068566 54.21142575 -84.20566621 37.99320458 -35.7109375 11.63671875 C-34.17711426 10.80503174 -34.17711426 10.80503174 -32.61230469 9.95654297 C-30.68609433 8.8964661 -28.7714841 7.81489327 -26.87207031 6.70751953 C-21.13977614 3.52396967 -16.95177264 2.47387409 -10.38061523 2.9597168 C-6.31911222 3.02844288 -3.81039954 0 0 0 Z " fill="#000000" transform="translate(379,294)"/>
<path d="M0 0 C2.09635278 -0.00439692 4.19063694 -0.0408257 6.28662109 -0.07861328 C7.62124934 -0.08447789 8.95588754 -0.08844966 10.29052734 -0.09033203 C11.4998291 -0.0985498 12.70913086 -0.10676758 13.95507812 -0.11523438 C16.97021484 0.37060547 16.97021484 0.37060547 18.85644531 2.23706055 C20.47310644 5.33394823 20.48455745 6.87066476 19.97021484 10.37060547 C18.55438267 13.98808694 16.79113324 17.38007045 14.97021484 20.80810547 C14.28378906 22.18192383 14.28378906 22.18192383 13.58349609 23.58349609 C8.14555471 33.96028013 0.29399502 39.08319379 -9.59228516 44.93310547 C-20.18654706 51.22038954 -27.05582303 56.29147021 -32.96728516 67.24560547 C-33.53286133 68.27266602 -34.0984375 69.29972656 -34.68115234 70.35791016 C-43.57501196 86.76356861 -51.78046981 103.54837044 -60.07666016 120.26123047 C-60.54691116 121.20614349 -61.01716217 122.15105652 -61.50166321 123.12460327 C-61.93730087 124.00532501 -62.37293854 124.88604675 -62.82177734 125.79345703 C-63.20146667 126.5596637 -63.58115601 127.32587036 -63.97235107 128.11529541 C-65.09041729 130.49992252 -66.07438601 132.91679303 -67.02978516 135.37060547 C-71.55827823 131.29169204 -74.37352231 126.81398246 -77.40478516 121.55810547 C-78.46520255 119.75479586 -79.52779956 117.95276663 -80.59228516 116.15185547 C-81.15044922 115.20697266 -81.70861328 114.26208984 -82.28369141 113.28857422 C-85.24971549 108.33192995 -88.32894104 103.44708293 -91.40478516 98.55810547 C-96.34094203 90.69837978 -101.22024933 82.80844963 -106.02978516 74.87060547 C-110.88886767 66.8548424 -115.80696954 58.87883403 -120.77978516 50.93310547 C-121.4044165 49.93456543 -122.02904785 48.93602539 -122.67260742 47.90722656 C-125.50240594 43.38868335 -128.34056411 38.87578786 -131.19775391 34.37451172 C-131.67051758 33.6267749 -132.14328125 32.87903809 -132.63037109 32.10864258 C-133.49561414 30.74109718 -134.36452074 29.37585995 -135.23779297 28.01342773 C-138.02978516 23.59478091 -138.02978516 23.59478091 -138.02978516 21.37060547 C-137.422108 21.37282608 -136.81443085 21.37504669 -136.18833923 21.37733459 C-100.98123872 21.56698162 -100.98123872 21.56698162 -65.77978516 21.05810547 C-64.59634521 21.03562744 -63.41290527 21.01314941 -62.19360352 20.98999023 C-49.44515052 20.57461766 -40.95484414 16.54377304 -30.21728516 9.80810547 C-28.02525787 8.449432 -25.83131817 7.09383788 -23.63525391 5.74169922 C-22.67772217 5.14284912 -21.72019043 4.54399902 -20.73364258 3.92700195 C-13.88218938 -0.01683679 -7.72103775 -0.00181885 0 0 Z " fill="#000000" transform="translate(475.02978515625,183.62939453125)"/>
<path d="M0 0 C1.72998047 2.25976563 1.72998047 2.25976563 3.6171875 5.40625 C3.95622101 5.96437378 4.29525452 6.52249756 4.64456177 7.09753418 C5.73173131 8.89233976 6.8035359 10.69578339 7.875 12.5 C8.58882942 13.68550718 9.30366243 14.87041069 10.01953125 16.0546875 C11.39920529 18.33743975 12.76813136 20.62551723 14.13183594 22.91796875 C15.71442075 25.52886141 17.36961285 28.05974278 19.0703125 30.59375 C21 34 21 34 20.73779297 36.10351562 C20 38 20 38 18.125 39.75 C14.83989777 41.06404089 13.33263241 41.00443826 9.87890625 40.7890625 C3.72542739 40.73251593 0.00400583 42.5187162 -5.1875 45.625 C-27.27072528 57.94530821 -50.91879394 67.38606087 -75 75 C-75.98307129 75.31517578 -76.96614258 75.63035156 -77.97900391 75.95507812 C-128.52291095 92.00182641 -191.42843826 102.38584731 -241.234375 78.4453125 C-256.17461 70.35591065 -266.56034041 58.83100588 -272 42.6875 C-273.20421995 38.06237496 -273.2302591 33.75868805 -273 29 C-271.24055528 31.63916708 -270.31354348 33.68626145 -269.25 36.625 C-263.39024961 51.42517836 -253.16573082 58.86698686 -239.05615234 65.14697266 C-190.70020786 85.20820158 -128.01257255 68.63897938 -82 50 C-63.2408188 42.00719519 -45.18375476 32.91361668 -27.8125 22.25 C-26.48351685 21.43511108 -26.48351685 21.43511108 -25.12768555 20.60375977 C-15.93107068 15.26215508 -15.93107068 15.26215508 -9.9375 6.875 C-7.81619411 2.19044949 -5.31688173 0 0 0 Z " fill="#000000" transform="translate(354,249)"/>
<path d="M0 0 C2.9375 2 2.9375 2 5 5 C6.27247027 12.04028476 3.85543933 17.57577532 0.875 23.8125 C-8.93515714 45.56403285 -15.06025761 69.60432356 -15.203125 93.56640625 C-15.20977676 94.35519165 -15.21642853 95.14397705 -15.22328186 95.95666504 C-15.23981744 98.49197495 -15.2460759 101.02714108 -15.25 103.5625 C-15.25333344 104.42672577 -15.25666687 105.29095154 -15.26010132 106.18136597 C-15.28799634 117.92952507 -14.87010877 129.32000971 -12.80371094 140.91821289 C-11.9076896 146.24218888 -11.73556787 149.34691189 -15 154 C-18.43985769 156.4235361 -20.40905759 157 -24.625 157 C-28.75317666 155.77683654 -29.63152973 154.52823773 -32 151 C-46.37382153 109.08593642 -36.47691406 50.94626896 -17.80615234 12.00439453 C-13.01972268 2.35408488 -13.01972268 2.35408488 -10 0 C-6.1544104 -1.2818632 -3.93271581 -0.94927623 0 0 Z " fill="#000000" transform="translate(54,152)"/>
<path d="M0 0 C6.45422643 51.01420569 -8.93538192 105.17156277 -37.11328125 147.65234375 C-39.19570445 150.2435163 -41.25812433 152.1219441 -44 154 C-48.1175848 154.43342998 -51.65274664 154.62998478 -55 152 C-57.23926718 148.67970728 -58.0400026 146.74582617 -57.82421875 142.72265625 C-56.91261073 138.60529868 -55.26883617 135.60189317 -53 132.125 C-52.17512414 130.79889806 -51.35362246 129.47069252 -50.53515625 128.140625 C-50.11379395 127.45806641 -49.69243164 126.77550781 -49.25830078 126.07226562 C-41.53574154 113.35416651 -35.84584361 100.04743984 -31 86 C-30.74734375 85.26813477 -30.4946875 84.53626953 -30.234375 83.78222656 C-25.20918048 68.86717005 -22.29711165 53.33390788 -21.484375 37.625 C-21.44636276 36.90635269 -21.40835052 36.18770538 -21.3691864 35.44728088 C-21.18797421 31.87769309 -21.04256697 28.31092373 -20.9465332 24.73803711 C-20.49907374 13.75598728 -20.49907374 13.75598728 -17.8515625 10.33984375 C-14.74238202 7.7886121 -11.7724593 5.68440565 -8.3125 3.625 C-7.73177734 3.27050781 -7.15105469 2.91601562 -6.55273438 2.55078125 C-2.29322514 0 -2.29322514 0 0 0 Z " fill="#000000" transform="translate(471,235)"/>
<path d="M0 0 C35.41862135 9.61956537 74.76011678 9.5546593 109.97631836 -1.07739258 C114.17848583 -1.88038589 117.10944603 -1.53630501 121.30834961 -0.71411133 C124.03273734 1.46539886 125.04820481 3.02624018 125.75366211 6.44213867 C126.09015571 10.83118564 126.09015571 10.83118564 125.30834961 13.28588867 C121.20401995 17.4969058 117.25297286 19.39278615 111.55834961 20.84838867 C110.79756104 21.05109375 110.03677246 21.25379883 109.25292969 21.46264648 C69.81302596 31.41903107 29.46213849 29.88462345 -9.75415039 19.91088867 C-10.48601562 19.738396 -11.21788086 19.56590332 -11.97192383 19.38818359 C-17.43111127 17.9008967 -19.65239572 15.85352092 -22.69165039 11.28588867 C-23.23975138 7.38066913 -23.03445617 5.09779711 -21.50415039 1.47338867 C-15.92935976 -5.25480691 -7.31786701 -1.9909984 0 0 Z " fill="#000000" transform="translate(191.691650390625,454.714111328125)"/>
<path d="M0 0 C2.62998478 3.34725336 2.43342998 6.8824152 2 11 C0.52084383 13.8940012 -0.63998061 15.52361958 -3.77734375 16.62255859 C-10.35195329 18.07491065 -16.85164119 18.45408517 -23.5625 18.8125 C-57.32838039 21.03366721 -89.55225642 31.4890757 -117.875 50.03125 C-122.41886188 52.89388299 -126.66731324 53.92516398 -132 53 C-135.0002525 50.76576942 -136.5516288 49.0648816 -138 45.625 C-138 41.9796642 -136.8514774 39.08377504 -135 36 C-132.2421875 33.6640625 -132.2421875 33.6640625 -128.875 31.625 C-127.95291748 31.06437866 -127.95291748 31.06437866 -127.01220703 30.49243164 C-125.02298337 29.30054143 -123.01585519 28.14620447 -121 27 C-120.34128906 26.62053223 -119.68257812 26.24106445 -119.00390625 25.85009766 C-94.94012152 12.12365515 -25.73387957 -18.961806 0 0 Z " fill="#000000" transform="translate(252,32)"/>
<path d="M0 0 C6.17547619 1.51473944 11.43924124 5.20084141 16.69140625 8.66015625 C17.36800293 9.10472168 18.04459961 9.54928711 18.74169922 10.00732422 C37.76248882 22.66575911 61.79818606 40.08024343 72.69140625 60.66015625 C73.5742907 65.22172593 73.3338102 66.67513686 70.81640625 70.53515625 C68.12564927 73.22591323 66.34638677 73.93111049 62.62890625 74.28515625 C58.11997225 74.24173152 56.21969582 72.80803709 53.06640625 69.66015625 C51.58207236 68.01660315 50.12262891 66.35016086 48.69140625 64.66015625 C48.09585938 63.97953125 47.5003125 63.29890625 46.88671875 62.59765625 C45.74658533 61.29464662 44.60991795 59.98859687 43.4765625 58.6796875 C29.79602454 43.20301764 12.14610539 30.77077104 -5.6640625 20.44921875 C-8.96306632 18.21739638 -10.92804577 16.4328756 -11.77734375 12.4765625 C-11.83479233 8.33308377 -11.63749065 6.18002555 -9.37109375 2.59765625 C-5.91825666 0.4132083 -4.03770434 -0.25942417 0 0 Z " fill="#000000" transform="translate(350.30859375,55.33984375)"/>
<path d="M0 0 C6.19974075 1.48579994 10.0480435 7.38997556 14.0078125 12.015625 C23.93331941 23.12601077 34.59138348 32.75297315 46.78125 41.30859375 C49.65634842 43.35632572 51.87720067 44.95256377 53.828125 47.91796875 C54.45169673 51.65939912 54.41207391 54.90622022 53.265625 58.54296875 C50.68315368 61.7710579 48.22029154 62.86699296 44.203125 63.35546875 C37.21392958 63.00889708 32.3566494 57.86698088 27.265625 53.54296875 C26.20040044 52.66653054 25.13398838 51.79153367 24.06640625 50.91796875 C13.52008987 42.21383153 2.88352907 33.20313654 -5.734375 22.54296875 C-6.311875 21.89972656 -6.889375 21.25648438 -7.484375 20.59375 C-11.0461255 16.39715046 -12.68715528 13.18877312 -12.2421875 7.59765625 C-10.65979664 1.19505937 -5.95356014 -0.36470484 0 0 Z " fill="#000000" transform="translate(77.734375,382.45703125)"/>
<path d="M0 0 C3.02519989 2.05971056 4.66926776 3.51573824 5.48046875 7.15625 C5.74173491 11.39299852 5.72177713 13.17621859 2.81640625 16.4921875 C-25.7127159 41.89537255 -25.7127159 41.89537255 -39.1953125 43.21484375 C-42.34198611 42.76258904 -44.75401006 42.15768586 -47.4375 40.4375 C-49.62314863 37.02788813 -50.16955082 34.02885033 -50 30 C-47.95383814 23.86151443 -41.42733402 21.10351924 -36.20996094 17.90136719 C-34.20071661 16.66623414 -32.19353265 15.42784243 -30.1875 14.1875 C-29.15713623 13.55207275 -29.15713623 13.55207275 -28.10595703 12.90380859 C-22.60401846 9.4710858 -17.45450006 5.71670419 -12.35546875 1.71484375 C-8.05647269 -1.41493945 -5.06183298 -1.22182175 0 0 Z " fill="#000000" transform="translate(386,415)"/>
<path d="M0 0 C0.77666016 0.20061035 1.55332031 0.4012207 2.35351562 0.60791016 C6.93408007 1.88567781 10.19300134 3.3011483 13.6875 6.6875 C15.28836627 9.88923254 15.18667089 13.21327059 14.6875 16.6875 C12.89386089 19.4975346 11.66869065 21.19690468 8.6875 22.6875 C1.7448966 23.15940507 -4.3654984 21.7446329 -11.0625 20 C-12.08988281 19.75572266 -13.11726563 19.51144531 -14.17578125 19.25976562 C-18.56493674 18.12957239 -21.58896412 17.3453562 -24.98046875 14.26171875 C-27.02801949 10.30472187 -27.24846124 7.0291017 -26.3125 2.6875 C-19.05105474 -6.48485191 -9.96978327 -2.66544851 0 0 Z " fill="#000000" transform="translate(304.3125,36.3125)"/>
<path d="M0 0 C3.96480298 0.9844117 6.34269877 3.03057764 8.47167969 6.5144043 C9.69255643 8.87735014 10.81138174 11.26759444 11.90625 13.69140625 C12.2878125 14.49578125 12.669375 15.30015625 13.0625 16.12890625 C15.6921834 21.80539525 17.63451137 27.53476591 19.28125 33.56640625 C18.12625 34.12328125 16.97125 34.68015625 15.78125 35.25390625 C11.98743204 37.12723021 8.52015981 39.30582157 5.04296875 41.7109375 C3.28125 42.56640625 3.28125 42.56640625 0.28125 41.56640625 C-0.83789062 39.62036133 -0.83789062 39.62036133 -1.875 37.0859375 C-2.25785156 36.16876953 -2.64070313 35.25160156 -3.03515625 34.30664062 C-3.42574219 33.34048828 -3.81632812 32.37433594 -4.21875 31.37890625 C-4.99841413 29.48892834 -5.779626 27.59958806 -6.5625 25.7109375 C-6.93052734 24.81511963 -7.29855469 23.91930176 -7.67773438 22.99633789 C-8.52507008 21.01849261 -9.4818841 19.08783393 -10.46875 17.17578125 C-12.35548327 13.23722555 -12.52662472 9.83323972 -11.71875 5.56640625 C-8.56670183 0.58413656 -5.53101382 0.0097377 0 0 Z " fill="#000000" transform="translate(437.71875,144.43359375)"/>
<path d="M0 0 C3.37882179 2.3933321 4.67073608 4.03278722 6 7.9375 C6 12.98996689 3.78374306 16.13728435 0.44140625 19.81640625 C-0.98365234 21.17572266 -0.98365234 21.17572266 -2.4375 22.5625 C-5.18451657 25.19739344 -7.76928242 27.70139903 -10.09765625 30.71484375 C-12.02675209 33.03213546 -13.1695576 34.04744727 -16 35 C-20.56301006 35.31330527 -24.01400713 34.81765262 -27.5625 31.875 C-29.39612937 28.20774126 -29.56978708 26.05973296 -29 22 C-26.19563003 17.25109048 -22.74756852 13.31516291 -19 9.3125 C-18.47921875 8.74466797 -17.9584375 8.17683594 -17.421875 7.59179688 C-12.0272554 1.78168258 -8.30321215 -1.56887788 0 0 Z " fill="#000000" transform="translate(97,92)"/>
<path d="M0 0 C4.00335254 1.16535947 6.26640655 3.99551559 8.39404297 7.49365234 C9.47610286 9.52708372 10.48347047 11.58210732 11.46875 13.6640625 C11.98211914 14.71207031 11.98211914 14.71207031 12.50585938 15.78125 C18.44224551 27.99983118 18.44224551 27.99983118 16.28125 34.6640625 C13.94603386 37.19387999 12.08364768 38.34732657 8.90625 39.6015625 C5.1950788 39.68992372 2.32363822 38.71456836 -0.71875 36.6640625 C-2.75015385 34.06977851 -4.12427782 31.25850112 -5.53125 28.2890625 C-5.91216797 27.53367187 -6.29308594 26.77828125 -6.68554688 26 C-13.01868356 13.311544 -13.01868356 13.311544 -11.71875 5.6640625 C-8.5772234 0.69842369 -5.51492591 0.09709377 0 0 Z " fill="#000000" transform="translate(45.71875,328.3359375)"/>
</svg>
